<?xml version="1.0" encoding="UTF-8"?>
<svg width="18" height="16" viewBox="0 0 18 16" fill="none" xmlns="http://www.w3.org/2000/svg">
    <path d="M14.25 13H3.75C3.33579 13 3 12.6642 3 12.25V5.75C3 5.33579 3.33579 5 3.75 5H14.25C14.6642 5 15 5.33579 15 5.75V12.25C15 12.6642 14.6642 13 14.25 13Z" stroke="#06B0B7" stroke-width="1.5" stroke-linecap="round" stroke-linejoin="round"/>
    <path d="M9 10.5C10.1046 10.5 11 9.60457 11 8.5C11 7.39543 10.1046 6.5 9 6.5C7.89543 6.5 7 7.39543 7 8.5C7 9.60457 7.89543 10.5 9 10.5Z" stroke="#06B0B7" stroke-width="1.5" stroke-linecap="round" stroke-linejoin="round"/>
    <path d="M6 3H12" stroke="#06B0B7" stroke-width="1.5" stroke-linecap="round" stroke-linejoin="round"/>
</svg>
