<svg preserveAspectRatio="xMidYMid meet" width="100%" height="100%" overflow="visible" style="display: block;" viewBox="0 0 25 20" fill="none" xmlns="http://www.w3.org/2000/svg">
<g id="Frame">
<g clip-path="url(#clip0_858_45)">
<path id="Vector" d="M8.27344 0C8.57813 0 8.83203 0.222656 8.92578 0.515625C9.40625 2.02734 10.8242 3.125 12.5 3.125C14.1758 3.125 15.5938 2.02734 16.0742 0.515625C16.168 0.222656 16.4219 0 16.7266 0H17.2187C18.0977 0 18.9453 0.308594 19.6211 0.871094L24.5508 4.97656C24.8086 5.19141 24.9688 5.50391 24.9961 5.83984C25.0234 6.17578 24.9141 6.50781 24.6914 6.76172L22.5039 9.26172C22.0586 9.77344 21.2852 9.83203 20.7617 9.39844L18.75 7.72266V17.5C18.75 18.8789 17.6289 20 16.25 20H8.75C7.37109 20 6.25 18.8789 6.25 17.5V7.72266L4.23828 9.39844C3.71875 9.83203 2.94531 9.77344 2.49609 9.26172L0.308594 6.76172C0.0859375 6.50781 -0.0234375 6.17578 0.00390625 5.83984C0.03125 5.50391 0.191406 5.19141 0.449219 4.97656L5.37891 0.871094C6.05469 0.308594 6.90234 0 7.78125 0H8.27344Z" fill="var(--fill-0, #06B0B7)"/>
</g>
</g>
<defs>
<clipPath id="clip0_858_45">
<path d="M0 0H25V20H0V0Z" fill="white"/>
</clipPath>
</defs>
</svg>
