<svg preserveAspectRatio="none" width="100%" height="100%" overflow="visible" style="display: block;" viewBox="0 0 16 18" fill="none" xmlns="http://www.w3.org/2000/svg">
<g id="Frame">
<g clip-path="url(#clip0_1059_12)">
<path id="Vector" d="M2.25 1.125C1.00898 1.125 0 2.13398 0 3.375V14.625C0 15.866 1.00898 16.875 2.25 16.875H13.5C14.741 16.875 15.75 15.866 15.75 14.625V6.09258C15.75 5.49492 15.5145 4.92188 15.0926 4.5L12.375 1.78242C11.9531 1.36055 11.3801 1.125 10.7824 1.125H2.25ZM2.25 4.5C2.25 3.87773 2.75273 3.375 3.375 3.375H10.125C10.7473 3.375 11.25 3.87773 11.25 4.5V6.75C11.25 7.37227 10.7473 7.875 10.125 7.875H3.375C2.75273 7.875 2.25 7.37227 2.25 6.75V4.5ZM7.875 10.125C8.47174 10.125 9.04403 10.3621 9.46599 10.784C9.88795 11.206 10.125 11.7783 10.125 12.375C10.125 12.9717 9.88795 13.544 9.46599 13.966C9.04403 14.3879 8.47174 14.625 7.875 14.625C7.27826 14.625 6.70597 14.3879 6.28401 13.966C5.86205 13.544 5.625 12.9717 5.625 12.375C5.625 11.7783 5.86205 11.206 6.28401 10.784C6.70597 10.3621 7.27826 10.125 7.875 10.125Z" fill="var(--fill-0, #06B0B7)"/>
</g>
</g>
<defs>
<clipPath id="clip0_1059_12">
<path d="M0 0H15.75V18H0V0Z" fill="white"/>
</clipPath>
</defs>
</svg>
