<svg preserveAspectRatio="none" width="100%" height="100%" overflow="visible" style="display: block;" viewBox="0 0 16 16" fill="none" xmlns="http://www.w3.org/2000/svg">
  <path d="M12 6.5H11V5C11 3.34315 9.65685 2 8 2C7.17157 2 6.4 2.3 5.8 2.8C5.6 2.95 5.6 3.25 5.75 3.45C5.9 3.65 6.2 3.65 6.4 3.5C6.8 3.2 7.35 3 8 3C8.82843 3 9.5 3.67157 9.5 4.5V6.5H4C3.44772 6.5 3 6.94772 3 7.5V13.5C3 14.0523 3.44772 14.5 4 14.5H12C12.5523 14.5 13 14.0523 13 13.5V7.5C13 6.94772 12.5523 6.5 12 6.5ZM8 11.5C7.17157 11.5 6.5 10.8284 6.5 10C6.5 9.17157 7.17157 8.5 8 8.5C8.82843 8.5 9.5 9.17157 9.5 10C9.5 10.8284 8.82843 11.5 8 11.5Z" fill="currentColor"/>
</svg>
