<svg preserveAspectRatio="none" width="100%" height="100%" overflow="visible" style="display: block;" viewBox="0 0 34 34" fill="none" xmlns="http://www.w3.org/2000/svg">
<g id="Frame">
<path id="Vector" fill-rule="evenodd" clip-rule="evenodd" d="M8.891 12.257C9.13454 12.0227 9.46114 11.8947 9.79904 11.901C10.1369 11.9074 10.4585 12.0477 10.693 12.291L17 18.9856L23.307 12.291C23.4216 12.1646 23.5605 12.0625 23.7153 11.9908C23.8701 11.919 24.0378 11.8791 24.2083 11.8733C24.3788 11.8676 24.5488 11.8961 24.7081 11.9572C24.8674 12.0184 25.0128 12.1109 25.1358 12.2292C25.2587 12.3476 25.3566 12.4894 25.4237 12.6463C25.4908 12.8032 25.5257 12.9719 25.5264 13.1426C25.527 13.3132 25.4934 13.4822 25.4276 13.6397C25.3617 13.7971 25.265 13.9397 25.143 14.059L17.918 21.709C17.7991 21.8324 17.6565 21.9305 17.4987 21.9976C17.341 22.0646 17.1714 22.0992 17 22.0992C16.8286 22.0992 16.659 22.0646 16.5013 21.9976C16.3435 21.9305 16.2009 21.8324 16.082 21.709L8.857 14.059C8.62269 13.8155 8.49465 13.4889 8.50103 13.151C8.5074 12.8131 8.64767 12.4915 8.891 12.257Z" fill="var(--fill-0, black)"/>
</g>
</svg>
