<svg preserveAspectRatio="none" width="100%" height="100%" overflow="visible" style="display: block;" viewBox="0 0 18 20" fill="none" xmlns="http://www.w3.org/2000/svg">
<g id="Frame">
<g clip-path="url(#clip0_858_6)">
<path id="Vector" d="M13.6484 1.74219C13.8789 1.20703 13.707 0.582031 13.2344 0.238281C12.7617 -0.105469 12.1172 -0.0742188 11.6758 0.308594L1.67578 9.05859C1.28516 9.40234 1.14453 9.95312 1.32812 10.4375C1.51172 10.9219 1.98047 11.25 2.5 11.25H6.85547L3.85156 18.2578C3.62109 18.793 3.79297 19.418 4.26562 19.7617C4.73828 20.1055 5.38281 20.0742 5.82422 19.6914L15.8242 10.9414C16.2148 10.5977 16.3555 10.0469 16.1719 9.5625C15.9883 9.07813 15.5234 8.75391 15 8.75391H10.6445L13.6484 1.74219Z" fill="var(--fill-0, white)"/>
</g>
</g>
<defs>
<clipPath id="clip0_858_6">
<path d="M0 0H17.5V20H0V0Z" fill="white"/>
</clipPath>
</defs>
</svg>
