<svg preserveAspectRatio="none" width="100%" height="100%" overflow="visible" style="display: block;" viewBox="0 0 11 14" fill="none" xmlns="http://www.w3.org/2000/svg">
<g id="Frame">
<g clip-path="url(#clip0_878_132)">
<path id="Vector" d="M4.63203 12.868C4.97383 13.2098 5.52891 13.2098 5.8707 12.868L10.2457 8.49297C10.5875 8.15117 10.5875 7.59609 10.2457 7.2543C9.90391 6.9125 9.34883 6.9125 9.00703 7.2543L6.125 10.1391V1.75C6.125 1.26602 5.73398 0.875 5.25 0.875C4.76602 0.875 4.375 1.26602 4.375 1.75V10.1363L1.49297 7.25703C1.15117 6.91523 0.596094 6.91523 0.254297 7.25703C-0.0875 7.59883 -0.0875 8.15391 0.254297 8.4957L4.6293 12.8707L4.63203 12.868Z" fill="var(--fill-0, #DC2626)"/>
</g>
</g>
<defs>
<clipPath id="clip0_878_132">
<path d="M0 0H10.5V14H0V0Z" fill="white"/>
</clipPath>
</defs>
</svg>
