<svg preserveAspectRatio="none" width="100%" height="100%" overflow="visible" style="display: block;" viewBox="0 0 18 18" fill="none" xmlns="http://www.w3.org/2000/svg">
<g id="Frame">
<path d="M18 18H0V0H18V18Z" stroke="var(--stroke-0, #E5E7EB)"/>
<path id="Vector" d="M9.5625 3.375C6.79922 3.375 4.46133 5.18555 3.6668 7.68164C4.84805 7.08398 6.18047 6.75 7.59375 6.75H10.6875C10.9969 6.75 11.25 7.00312 11.25 7.3125C11.25 7.62187 10.9969 7.875 10.6875 7.875H10.125H7.59375C7.01016 7.875 6.44414 7.9418 5.89922 8.06484C4.98867 8.27227 4.14141 8.64141 3.38906 9.14414C1.34648 10.5047 0 12.8285 0 15.4688V16.0313C0 16.4988 0.376172 16.875 0.84375 16.875C1.31133 16.875 1.6875 16.4988 1.6875 16.0313V15.4688C1.6875 13.7566 2.41523 12.2168 3.57891 11.1375C4.275 13.7918 6.69023 15.75 9.5625 15.75H9.59766C14.2418 15.7254 18 11.148 18 5.50547C18 4.00781 17.7363 2.58398 17.2582 1.30078C17.1668 1.0582 16.8117 1.06875 16.6887 1.29727C16.0277 2.53477 14.7199 3.375 13.2188 3.375H9.5625Z" fill="var(--fill-0, white)"/>
</g>
</svg>
