<svg preserveAspectRatio="none" width="100%" height="100%" overflow="visible" style="display: block;" viewBox="0 0 18 16" fill="none" xmlns="http://www.w3.org/2000/svg">
<g id="Frame">
<g clip-path="url(#clip0_858_15)">
<path id="Vector" d="M17.1125 3.24375L15.3219 0.409375C15.1625 0.15625 14.8781 0 14.575 0H3.425C3.12187 0 2.8375 0.15625 2.67812 0.409375L0.884375 3.24375C-0.040625 4.70625 0.778125 6.74062 2.50625 6.975C2.63125 6.99062 2.75938 7 2.88438 7C3.7 7 4.425 6.64375 4.92187 6.09375C5.41875 6.64375 6.14375 7 6.95937 7C7.775 7 8.5 6.64375 8.99688 6.09375C9.49375 6.64375 10.2188 7 11.0344 7C11.8531 7 12.575 6.64375 13.0719 6.09375C13.5719 6.64375 14.2938 7 15.1094 7C15.2375 7 15.3625 6.99062 15.4875 6.975C17.2219 6.74375 18.0438 4.70938 17.1156 3.24375H17.1125ZM15.6156 7.96562H15.6125C15.4469 7.9875 15.2781 8 15.1063 8C14.7188 8 14.3469 7.94062 14 7.83437V12H4V7.83125C3.65 7.94063 3.275 8 2.8875 8C2.71562 8 2.54375 7.9875 2.37813 7.96562H2.375C2.24688 7.94687 2.12188 7.925 2 7.89375V12V14C2 15.1031 2.89687 16 4 16H14C15.1031 16 16 15.1031 16 14V12V7.89375C15.875 7.925 15.75 7.95 15.6156 7.96562Z" fill="var(--fill-0, #374151)"/>
</g>
</g>
<defs>
<clipPath id="clip0_858_15">
<path d="M0 0H18V16H0V0Z" fill="white"/>
</clipPath>
</defs>
</svg>
