<svg preserveAspectRatio="none" width="100%" height="100%" overflow="visible" style="display: block;" viewBox="0 0 20 20" fill="none" xmlns="http://www.w3.org/2000/svg">
<g id="Frame">
<path id="Vector" fill-rule="evenodd" clip-rule="evenodd" d="M5.23 7.21C5.37326 7.07217 5.56538 6.99685 5.76414 7.0006C5.9629 7.00435 6.15204 7.08686 6.29 7.23L10 11.168L13.71 7.23C13.7774 7.15566 13.8591 7.0956 13.9502 7.0534C14.0413 7.0112 14.1399 6.98771 14.2402 6.98432C14.3405 6.98093 14.4405 6.99771 14.5342 7.03367C14.6279 7.06963 14.7134 7.12403 14.7857 7.19365C14.858 7.26328 14.9156 7.3467 14.9551 7.43899C14.9946 7.53128 15.0151 7.63055 15.0155 7.73093C15.0159 7.8313 14.9961 7.93073 14.9574 8.02333C14.9187 8.11593 14.8617 8.19981 14.79 8.27L10.54 12.77C10.47 12.8426 10.3862 12.9003 10.2934 12.9398C10.2006 12.9792 10.1008 12.9995 10 12.9995C9.89919 12.9995 9.7994 12.9792 9.70662 12.9398C9.61384 12.9003 9.52996 12.8426 9.46 12.77L5.21 8.27C5.07217 8.12674 4.99685 7.93462 5.0006 7.73586C5.00435 7.5371 5.08686 7.34796 5.23 7.21Z" fill="var(--fill-0, black)"/>
</g>
</svg>
