<svg preserveAspectRatio="none" width="100%" height="100%" overflow="visible" style="display: block;" viewBox="0 0 11 14" fill="none" xmlns="http://www.w3.org/2000/svg">
<g id="Frame">
<g clip-path="url(#clip0_878_144)">
<path id="Vector" d="M5.86797 1.13203C5.52617 0.790234 4.97109 0.790234 4.6293 1.13203L0.254297 5.50703C-0.0875 5.84883 -0.0875 6.40391 0.254297 6.7457C0.596094 7.0875 1.15117 7.0875 1.49297 6.7457L4.375 3.86094V12.25C4.375 12.734 4.76602 13.125 5.25 13.125C5.73398 13.125 6.125 12.734 6.125 12.25V3.86094L9.00703 6.74297C9.34883 7.08477 9.90391 7.08477 10.2457 6.74297C10.5875 6.40117 10.5875 5.84609 10.2457 5.5043L5.8707 1.1293L5.86797 1.13203Z" fill="var(--fill-0, #16A34A)"/>
</g>
</g>
<defs>
<clipPath id="clip0_878_144">
<path d="M0 0H10.5V14H0V0Z" fill="white"/>
</clipPath>
</defs>
</svg>
