<svg preserveAspectRatio="none" width="100%" height="100%" overflow="visible" style="display: block;" viewBox="0 0 16 14" fill="none" xmlns="http://www.w3.org/2000/svg">
<g id="Frame">
<g clip-path="url(#clip0_862_66)">
<path id="Vector" d="M7.875 0.875C5.66563 0.875 3.89648 1.88125 2.60859 3.07891C1.32891 4.26562 0.473047 5.6875 0.0683594 6.66367C-0.021875 6.87969 -0.021875 7.12031 0.0683594 7.33633C0.473047 8.3125 1.32891 9.73437 2.60859 10.9211C3.89648 12.1187 5.66563 13.125 7.875 13.125C10.0844 13.125 11.8535 12.1187 13.1414 10.9211C14.4211 9.73164 15.277 8.3125 15.6844 7.33633C15.7746 7.12031 15.7746 6.87969 15.6844 6.66367C15.277 5.6875 14.4211 4.26562 13.1414 3.07891C11.8535 1.88125 10.0844 0.875 7.875 0.875ZM3.9375 7C3.9375 5.95571 4.35234 4.95419 5.09077 4.21577C5.82919 3.47734 6.83071 3.0625 7.875 3.0625C8.91929 3.0625 9.92081 3.47734 10.6592 4.21577C11.3977 4.95419 11.8125 5.95571 11.8125 7C11.8125 8.04429 11.3977 9.04581 10.6592 9.78423C9.92081 10.5227 8.91929 10.9375 7.875 10.9375C6.83071 10.9375 5.82919 10.5227 5.09077 9.78423C4.35234 9.04581 3.9375 8.04429 3.9375 7ZM7.875 5.25C7.875 6.21523 7.09023 7 6.125 7C5.93086 7 5.74492 6.96719 5.56992 6.90977C5.41953 6.86055 5.24453 6.95352 5.25 7.11211C5.2582 7.30078 5.28555 7.48945 5.3375 7.67812C5.71211 9.07812 7.15312 9.90938 8.55312 9.53477C9.95312 9.16016 10.7844 7.71914 10.4098 6.31914C10.1063 5.18438 9.10273 4.42148 7.98711 4.375C7.82852 4.36953 7.73555 4.5418 7.78477 4.69492C7.84219 4.86992 7.875 5.05586 7.875 5.25Z" fill="var(--fill-0, white)"/>
</g>
</g>
<defs>
<clipPath id="clip0_862_66">
<path d="M0 0H15.75V14H0V0Z" fill="white"/>
</clipPath>
</defs>
</svg>
