<svg preserveAspectRatio="none" width="100%" height="100%" overflow="visible" style="display: block;" viewBox="0 0 15 20" fill="none" xmlns="http://www.w3.org/2000/svg">
<g id="Frame">
<g clip-path="url(#clip0_858_36)">
<path id="Vector" d="M14.6328 4.63281C15.1211 4.14453 15.1211 3.35156 14.6328 2.86328C14.1445 2.375 13.3516 2.375 12.8633 2.86328L0.363281 15.3633C-0.125 15.8516 -0.125 16.6445 0.363281 17.1328C0.851563 17.6211 1.64453 17.6211 2.13281 17.1328L14.6328 4.63281ZM5 5C5 4.33696 4.73661 3.70107 4.26777 3.23223C3.79893 2.76339 3.16304 2.5 2.5 2.5C1.83696 2.5 1.20107 2.76339 0.732233 3.23223C0.263392 3.70107 0 4.33696 0 5C0 5.66304 0.263392 6.29893 0.732233 6.76777C1.20107 7.23661 1.83696 7.5 2.5 7.5C3.16304 7.5 3.79893 7.23661 4.26777 6.76777C4.73661 6.29893 5 5.66304 5 5ZM15 15C15 14.337 14.7366 13.7011 14.2678 13.2322C13.7989 12.7634 13.163 12.5 12.5 12.5C11.837 12.5 11.2011 12.7634 10.7322 13.2322C10.2634 13.7011 10 14.337 10 15C10 15.663 10.2634 16.2989 10.7322 16.7678C11.2011 17.2366 11.837 17.5 12.5 17.5C13.163 17.5 13.7989 17.2366 14.2678 16.7678C14.7366 16.2989 15 15.663 15 15Z" fill="var(--fill-0, #06B0B7)"/>
</g>
</g>
<defs>
<clipPath id="clip0_858_36">
<path d="M0 0H15V20H0V0Z" fill="white"/>
</clipPath>
</defs>
</svg>
