<svg preserveAspectRatio="none" width="100%" height="100%" overflow="visible" style="display: block;" viewBox="0 0 18 20" fill="none" xmlns="http://www.w3.org/2000/svg">
<g id="Frame">
<g clip-path="url(#clip0_858_18)">
<path id="Vector" d="M17.1328 5.88281C17.6211 5.39453 17.6211 4.60156 17.1328 4.11328L13.3828 0.363281C12.8945 -0.125 12.1016 -0.125 11.6133 0.363281C11.125 0.851563 11.125 1.64453 11.6133 2.13281L13.2305 3.75H1.25C0.558594 3.75 0 4.30859 0 5C0 5.69141 0.558594 6.25 1.25 6.25H13.2305L11.6133 7.86719C11.125 8.35547 11.125 9.14844 11.6133 9.63672C12.1016 10.125 12.8945 10.125 13.3828 9.63672L17.1328 5.88672V5.88281ZM4.11328 19.6328C4.60156 20.1211 5.39453 20.1211 5.88281 19.6328C6.37109 19.1445 6.37109 18.3516 5.88281 17.8633L4.26953 16.25H16.25C16.9414 16.25 17.5 15.6914 17.5 15C17.5 14.3086 16.9414 13.75 16.25 13.75H4.26953L5.88672 12.1328C6.375 11.6445 6.375 10.8516 5.88672 10.3633C5.39844 9.875 4.60547 9.875 4.11719 10.3633L0.367187 14.1133C-0.121094 14.6016 -0.121094 15.3945 0.367187 15.8828L4.11719 19.6328H4.11328Z" fill="var(--fill-0, #642C8D)"/>
</g>
</g>
<defs>
<clipPath id="clip0_858_18">
<path d="M0 0H17.5V20H0V0Z" fill="white"/>
</clipPath>
</defs>
</svg>
