<svg preserveAspectRatio="none" width="100%" height="100%" overflow="visible" style="display: block;" viewBox="0 0 20 20" fill="none" xmlns="http://www.w3.org/2000/svg">
<g id="Group">
<path id="Vector" d="M5.78125 17.1563L5.28906 18.3086C4.55859 17.9375 3.88672 17.4805 3.27734 16.9453L4.16406 16.0586C4.65234 16.4844 5.19531 16.8555 5.78125 17.1563ZM1.25391 10.293H0C0.0546875 11.1211 0.210938 11.9219 0.457031 12.6797L1.62109 12.2148C1.42969 11.6016 1.30078 10.957 1.25391 10.293ZM1.25391 9.04297C1.30859 8.30859 1.45703 7.59766 1.6875 6.92969L0.535156 6.4375C0.242188 7.25781 0.0585938 8.13281 0 9.04297H1.25391ZM2.17969 5.78125C2.48438 5.19922 2.85156 4.65625 3.27734 4.16016L2.39062 3.27344C1.85547 3.88281 1.39453 4.55469 1.02734 5.28516L2.17969 5.78125ZM15.1758 16.0586C14.6328 16.5273 14.0273 16.9297 13.375 17.2461L13.8398 18.4102C14.6484 18.0234 15.3945 17.5273 16.0625 16.9414L15.1758 16.0586ZM4.16016 3.27734C4.70312 2.80859 5.30859 2.40625 5.96094 2.08984L5.49609 0.925781C4.6875 1.3125 3.94141 1.80859 3.27734 2.39453L4.16016 3.27734ZM17.1563 13.5547C16.8516 14.1367 16.4844 14.6797 16.0586 15.1758L16.9453 16.0625C17.4805 15.4531 17.9414 14.7773 18.3086 14.0508L17.1563 13.5547ZM18.082 10.293C18.0273 11.0273 17.8789 11.7383 17.6484 12.4063L18.8008 12.8984C19.0937 12.0742 19.2773 11.1992 19.332 10.2891H18.082V10.293ZM12.2148 17.7148C11.6016 17.9102 10.957 18.0352 10.293 18.082V19.3359C11.1211 19.2813 11.9219 19.125 12.6797 18.8789L12.2148 17.7148ZM9.04297 18.082C8.30859 18.0273 7.59766 17.8789 6.92969 17.6484L6.4375 18.8008C7.26172 19.0937 8.13672 19.2773 9.04688 19.332V18.082H9.04297ZM17.7148 7.12109C17.9102 7.73438 18.0352 8.37891 18.082 9.04297H19.3359C19.2813 8.21484 19.125 7.41406 18.8789 6.65625L17.7148 7.12109ZM3.27734 15.1758C2.80859 14.6328 2.40625 14.0273 2.08984 13.375L0.925781 13.8398C1.3125 14.6484 1.80859 15.3945 2.39453 16.0625L3.27734 15.1758ZM10.293 1.25391C11.0273 1.30859 11.7344 1.45703 12.4063 1.6875L12.8984 0.535156C12.0781 0.242188 11.2031 0.0585938 10.293 0V1.25391ZM7.12109 1.62109C7.73438 1.42578 8.37891 1.30078 9.04297 1.25391V0C8.21484 0.0546875 7.41406 0.210938 6.65625 0.457031L7.12109 1.62109ZM16.9453 3.27344L16.0586 4.16016C16.5273 4.70312 16.9297 5.30859 17.25 5.96094L18.4141 5.49609C18.0273 4.6875 17.5312 3.94141 16.9453 3.27344ZM15.1758 3.27734L16.0625 2.39062C15.4531 1.85547 14.7813 1.39453 14.0508 1.02734L13.5586 2.17969C14.1367 2.48438 14.6836 2.85156 15.1758 3.27734Z" fill="var(--fill-0, #06B0B7)"/>
<path id="Vector_2" d="M9.66797 14.9805C10.272 14.9805 10.7617 14.4908 10.7617 13.8867C10.7617 13.2827 10.272 12.793 9.66797 12.793C9.06391 12.793 8.57422 13.2827 8.57422 13.8867C8.57422 14.4908 9.06391 14.9805 9.66797 14.9805Z" fill="var(--fill-0, #06B0B7)"/>
<path id="Vector_3" d="M9.96875 11.8555H9.34375C9.08594 11.8555 8.875 11.6445 8.875 11.3867C8.875 8.61328 11.8984 8.89062 11.8984 7.17578C11.8984 6.39453 11.2031 5.60547 9.65625 5.60547C8.51953 5.60547 7.92578 5.98047 7.34375 6.72656C7.19141 6.92187 6.91016 6.96094 6.71094 6.82031L6.19922 6.46094C5.98047 6.30859 5.92969 6 6.09766 5.78906C6.92578 4.72656 7.91016 4.04297 9.66016 4.04297C11.7031 4.04297 13.4648 5.20703 13.4648 7.17578C13.4648 9.81641 10.4414 9.65625 10.4414 11.3867C10.4375 11.6445 10.2266 11.8555 9.96875 11.8555Z" fill="var(--fill-0, #06B0B7)"/>
<path id="Vector_4" opacity="0" d="M8.75 4.92188L9.02344 11.4844C9.03516 11.7344 9.24219 11.9336 9.49219 11.9336H9.84375C10.0937 11.9336 10.3008 11.7344 10.3125 11.4844L10.5859 4.92188C10.5977 4.65625 10.3828 4.43359 10.1172 4.43359H9.21875C8.95312 4.43359 8.73828 4.65625 8.75 4.92188Z" fill="var(--fill-0, #06B0B7)"/>
</g>
</svg>
