<svg preserveAspectRatio="none" width="100%" height="100%" overflow="visible" style="display: block;" viewBox="0 0 21 24" fill="none" xmlns="http://www.w3.org/2000/svg">
<g id="Frame">
<g clip-path="url(#clip0_944_143)">
<path id="Vector" d="M16.3781 2.09062C16.6547 1.44844 16.4484 0.698437 15.8812 0.285937C15.3141 -0.126563 14.5406 -0.0890625 14.0109 0.370312L2.01094 10.8703C1.54219 11.2828 1.37344 11.9437 1.59375 12.525C1.81406 13.1062 2.37656 13.5 3 13.5H8.22656L4.62187 21.9094C4.34531 22.5516 4.55156 23.3016 5.11875 23.7141C5.68594 24.1266 6.45938 24.0891 6.98906 23.6297L18.9891 13.1297C19.4578 12.7172 19.6266 12.0563 19.4062 11.475C19.1859 10.8938 18.6281 10.5047 18 10.5047H12.7734L16.3781 2.09062Z" fill="var(--fill-0, #CA8A04)"/>
</g>
</g>
<defs>
<clipPath id="clip0_944_143">
<path d="M0 0H21V24H0V0Z" fill="white"/>
</clipPath>
</defs>
</svg>
