<svg preserveAspectRatio="none" width="100%" height="100%" overflow="visible" style="display: block;" viewBox="0 0 20 20" fill="none" xmlns="http://www.w3.org/2000/svg">
<g id="Frame">
<g clip-path="url(#clip0_944_125)">
<path id="Vector" d="M10 7.5L8.45703 5.95703C8.64844 5.46484 8.75 4.93359 8.75 4.375C8.75 1.95703 6.79297 0 4.375 0C1.95703 0 0 1.95703 0 4.375C0 6.79297 1.95703 8.75 4.375 8.75C4.93359 8.75 5.46484 8.64453 5.95703 8.45703L7.5 10L5.95703 11.543C5.46484 11.3516 4.93359 11.25 4.375 11.25C1.95703 11.25 0 13.207 0 15.625C0 18.043 1.95703 20 4.375 20C6.79297 20 8.75 18.043 8.75 15.625C8.75 15.0664 8.64453 14.5352 8.45703 14.043L19.5 3C19.7773 2.72266 19.7773 2.27734 19.5 2C18.3945 0.894531 16.6055 0.894531 15.5 2L10 7.5ZM10.8828 13.3828L15.5 18C16.6055 19.1055 18.3945 19.1055 19.5 18C19.7773 17.7227 19.7773 17.2773 19.5 17L13.3828 10.8828L10.8828 13.3828ZM2.5 4.375C2.5 4.12877 2.5485 3.88495 2.64273 3.65747C2.73695 3.42998 2.87506 3.22328 3.04917 3.04917C3.22328 2.87507 3.42998 2.73695 3.65747 2.64273C3.88495 2.5485 4.12877 2.5 4.375 2.5C4.62123 2.5 4.86505 2.5485 5.09253 2.64273C5.32002 2.73695 5.52672 2.87507 5.70082 3.04917C5.87493 3.22328 6.01305 3.42998 6.10727 3.65747C6.2015 3.88495 6.25 4.12877 6.25 4.375C6.25 4.62123 6.2015 4.86505 6.10727 5.09253C6.01305 5.32002 5.87493 5.52672 5.70082 5.70083C5.52672 5.87494 5.32002 6.01305 5.09253 6.10727C4.86505 6.2015 4.62123 6.25 4.375 6.25C4.12877 6.25 3.88495 6.2015 3.65747 6.10727C3.42998 6.01305 3.22328 5.87494 3.04917 5.70083C2.87506 5.52672 2.73695 5.32002 2.64273 5.09253C2.5485 4.86505 2.5 4.62123 2.5 4.375ZM4.375 13.75C4.62123 13.75 4.86505 13.7985 5.09253 13.8927C5.32002 13.987 5.52672 14.1251 5.70082 14.2992C5.87493 14.4733 6.01305 14.68 6.10727 14.9075C6.2015 15.135 6.25 15.3788 6.25 15.625C6.25 15.8712 6.2015 16.115 6.10727 16.3425C6.01305 16.57 5.87493 16.7767 5.70082 16.9508C5.52672 17.1249 5.32002 17.263 5.09253 17.3573C4.86505 17.4515 4.62123 17.5 4.375 17.5C4.12877 17.5 3.88495 17.4515 3.65747 17.3573C3.42998 17.263 3.22328 17.1249 3.04917 16.9508C2.87506 16.7767 2.73695 16.57 2.64273 16.3425C2.5485 16.115 2.5 15.8712 2.5 15.625C2.5 15.3788 2.5485 15.135 2.64273 14.9075C2.73695 14.68 2.87506 14.4733 3.04917 14.2992C3.22328 14.1251 3.42998 13.987 3.65747 13.8927C3.88495 13.7985 4.12877 13.75 4.375 13.75Z" fill="var(--fill-0, #642C8D)"/>
</g>
</g>
<defs>
<clipPath id="clip0_944_125">
<path d="M0 0H20V20H0V0Z" fill="white"/>
</clipPath>
</defs>
</svg>
