<svg preserveAspectRatio="none" width="100%" height="100%" overflow="visible" style="display: block;" viewBox="0 0 18 18" fill="none" xmlns="http://www.w3.org/2000/svg">
<g id="Frame">
<g clip-path="url(#clip0_949_158)">
<path id="Vector" d="M9 6.75L7.61133 5.36133C7.78359 4.91836 7.875 4.44023 7.875 3.9375C7.875 1.76133 6.11367 0 3.9375 0C1.76133 0 0 1.76133 0 3.9375C0 6.11367 1.76133 7.875 3.9375 7.875C4.44023 7.875 4.91836 7.78008 5.36133 7.61133L6.75 9L5.36133 10.3887C4.91836 10.2164 4.44023 10.125 3.9375 10.125C1.76133 10.125 0 11.8863 0 14.0625C0 16.2387 1.76133 18 3.9375 18C6.11367 18 7.875 16.2387 7.875 14.0625C7.875 13.5598 7.78008 13.0816 7.61133 12.6387L17.55 2.7C17.7996 2.45039 17.7996 2.04961 17.55 1.8C16.5551 0.805078 14.9449 0.805078 13.95 1.8L9 6.75ZM9.79453 12.0445L13.95 16.2C14.9449 17.1949 16.5551 17.1949 17.55 16.2C17.7996 15.9504 17.7996 15.5496 17.55 15.3L12.0445 9.79453L9.79453 12.0445ZM2.25 3.9375C2.25 3.71589 2.29365 3.49646 2.37845 3.29172C2.46326 3.08698 2.58756 2.90096 2.74426 2.74426C2.90096 2.58756 3.08698 2.46326 3.29172 2.37845C3.49646 2.29365 3.71589 2.25 3.9375 2.25C4.15911 2.25 4.37854 2.29365 4.58328 2.37845C4.78802 2.46326 4.97404 2.58756 5.13074 2.74426C5.28744 2.90096 5.41174 3.08698 5.49655 3.29172C5.58135 3.49646 5.625 3.71589 5.625 3.9375C5.625 4.15911 5.58135 4.37854 5.49655 4.58328C5.41174 4.78802 5.28744 4.97404 5.13074 5.13074C4.97404 5.28744 4.78802 5.41174 4.58328 5.49655C4.37854 5.58135 4.15911 5.625 3.9375 5.625C3.71589 5.625 3.49646 5.58135 3.29172 5.49655C3.08698 5.41174 2.90096 5.28744 2.74426 5.13074C2.58756 4.97404 2.46326 4.78802 2.37845 4.58328C2.29365 4.37854 2.25 4.15911 2.25 3.9375ZM3.9375 12.375C4.15911 12.375 4.37854 12.4186 4.58328 12.5035C4.78802 12.5883 4.97404 12.7126 5.13074 12.8693C5.28744 13.026 5.41174 13.212 5.49655 13.4167C5.58135 13.6215 5.625 13.8409 5.625 14.0625C5.625 14.2841 5.58135 14.5035 5.49655 14.7083C5.41174 14.913 5.28744 15.099 5.13074 15.2557C4.97404 15.4124 4.78802 15.5367 4.58328 15.6215C4.37854 15.7064 4.15911 15.75 3.9375 15.75C3.71589 15.75 3.49646 15.7064 3.29172 15.6215C3.08698 15.5367 2.90096 15.4124 2.74426 15.2557C2.58756 15.099 2.46326 14.913 2.37845 14.7083C2.29365 14.5035 2.25 14.2841 2.25 14.0625C2.25 13.8409 2.29365 13.6215 2.37845 13.4167C2.46326 13.212 2.58756 13.026 2.74426 12.8693C2.90096 12.7126 3.08698 12.5883 3.29172 12.5035C3.49646 12.4186 3.71589 12.375 3.9375 12.375Z" fill="var(--fill-0, #06B0B7)"/>
</g>
</g>
<defs>
<clipPath id="clip0_949_158">
<path d="M0 0H18V18H0V0Z" fill="white"/>
</clipPath>
</defs>
</svg>
