<svg preserveAspectRatio="none" width="100%" height="100%" overflow="visible" style="display: block;" viewBox="0 0 16 18" fill="none" xmlns="http://www.w3.org/2000/svg">
<g id="Frame">
<g clip-path="url(#clip0_949_170)">
<path id="Vector" d="M0.330469 8.20547C-0.108984 8.64492 -0.108984 9.35859 0.330469 9.79805L5.95547 15.423C6.39492 15.8625 7.10859 15.8625 7.54805 15.423C7.9875 14.9836 7.9875 14.2699 7.54805 13.8305L3.83906 10.125H14.625C15.2473 10.125 15.75 9.62227 15.75 9C15.75 8.37773 15.2473 7.875 14.625 7.875H3.84258L7.54453 4.16953C7.98398 3.73008 7.98398 3.01641 7.54453 2.57695C7.10508 2.1375 6.39141 2.1375 5.95195 2.57695L0.326953 8.20195L0.330469 8.20547Z" fill="var(--fill-0, #6B7280)"/>
</g>
</g>
<defs>
<clipPath id="clip0_949_170">
<path d="M0 0H15.75V18H0V0Z" fill="white"/>
</clipPath>
</defs>
</svg>
