<svg preserveAspectRatio="none" width="100%" height="100%" overflow="visible" style="display: block;" viewBox="0 0 27 30" fill="none" xmlns="http://www.w3.org/2000/svg">
<g id="Group">
<path id="Vector" d="M5.625 1.875V3.75H2.8125C1.25977 3.75 0 5.00977 0 6.5625V9.375H26.25V6.5625C26.25 5.00977 24.9902 3.75 23.4375 3.75H20.625V1.875C20.625 0.83789 19.7871 0 18.75 0C17.7129 0 16.875 0.83789 16.875 1.875V3.75H9.375V1.875C9.375 0.83789 8.5371 0 7.5 0C6.46289 0 5.625 0.83789 5.625 1.875ZM26.25 11.25H0V27.1875C0 28.7402 1.25977 30 2.8125 30H23.4375C24.9902 30 26.25 28.7402 26.25 27.1875V11.25ZM13.125 14.5312C13.9043 14.5312 14.5312 15.1582 14.5312 15.9375V19.2188H17.8125C18.5918 19.2188 19.2188 19.8457 19.2188 20.625C19.2188 21.4043 18.5918 22.0312 17.8125 22.0312H14.5312V25.3125C14.5312 26.0918 13.9043 26.7188 13.125 26.7188C12.3457 26.7188 11.7188 26.0918 11.7188 25.3125V22.0312H8.4375C7.6582 22.0312 7.03125 21.4043 7.03125 20.625C7.03125 19.8457 7.6582 19.2188 8.4375 19.2188H11.7188V15.9375C11.7188 15.1582 12.3457 14.5312 13.125 14.5312Z" fill="var(--fill-0, white)"/>
</g>
</svg>
