<svg preserveAspectRatio="none" width="100%" height="100%" overflow="visible" style="display: block;" viewBox="0 0 27 24" fill="none" xmlns="http://www.w3.org/2000/svg">
<g id="Frame">
<path d="M27 24H0V0H27V24Z" stroke="var(--stroke-0, #E5E7EB)"/>
<path id="Vector" d="M15 9H15.8016C16.8375 10.7953 18.7781 12 21 12C21.5156 12 22.0219 11.9344 22.5 11.8125V12V13.5V22.5C22.5 23.3297 21.8297 24 21 24C20.1703 24 19.5 23.3297 19.5 22.5V15.9L13.125 21H15.75C16.5797 21 17.25 21.6703 17.25 22.5C17.25 23.3297 16.5797 24 15.75 24H9C6.51562 24 4.5 21.9844 4.5 19.5V9.02344C4.5 8.26875 3.9375 7.62656 3.1875 7.53281L2.81719 7.48594C1.99687 7.38281 1.41094 6.63281 1.51406 5.8125C1.61719 4.99219 2.36719 4.40625 3.1875 4.50937L3.55781 4.55625C5.80781 4.8375 7.5 6.75 7.5 9.02344V13.0219C9.1125 10.5984 11.8688 9 15 9ZM22.5 10.2422C22.0313 10.4062 21.525 10.5 21 10.5C19.6688 10.5 18.4688 9.91875 17.6438 9C17.4703 8.80781 17.3156 8.60156 17.1797 8.38125C16.7484 7.6875 16.5 6.87188 16.5 6V1.5V0.5625V0.501562C16.5 0.225 16.7203 0.0046875 16.9969 0H17.0062C17.1609 0 17.3063 0.075 17.4 0.196875V0.201563L18 0.998437L19.275 2.7L19.5 3H22.5L22.725 2.7L24 0.998437L24.6 0.201563V0.196875C24.6937 0.075 24.8391 0 24.9938 0H25.0031C25.2797 0.0046875 25.5 0.225 25.5 0.501562V0.5625V1.5V6C25.5 6.81094 25.2844 7.575 24.9094 8.23125C24.3797 9.15938 23.5219 9.88125 22.5 10.2422ZM20.25 6C20.25 5.80109 20.171 5.61032 20.0303 5.46967C19.8897 5.32902 19.6989 5.25 19.5 5.25C19.3011 5.25 19.1103 5.32902 18.9697 5.46967C18.829 5.61032 18.75 5.80109 18.75 6C18.75 6.19891 18.829 6.38968 18.9697 6.53033C19.1103 6.67098 19.3011 6.75 19.5 6.75C19.6989 6.75 19.8897 6.67098 20.0303 6.53033C20.171 6.38968 20.25 6.19891 20.25 6ZM22.5 6.75C22.6989 6.75 22.8897 6.67098 23.0303 6.53033C23.171 6.38968 23.25 6.19891 23.25 6C23.25 5.80109 23.171 5.61032 23.0303 5.46967C22.8897 5.32902 22.6989 5.25 22.5 5.25C22.3011 5.25 22.1103 5.32902 21.9697 5.46967C21.829 5.61032 21.75 5.80109 21.75 6C21.75 6.19891 21.829 6.38968 21.9697 6.53033C22.1103 6.67098 22.3011 6.75 22.5 6.75Z" fill="var(--fill-0, white)"/>
</g>
</svg>
