<svg preserveAspectRatio="none" width="100%" height="100%" overflow="visible" style="display: block;" viewBox="0 0 36 36" fill="none" xmlns="http://www.w3.org/2000/svg">
<g id="Frame">
<path d="M36 36H0V0H36V36Z" stroke="var(--stroke-0, #E5E7EB)"/>
<path id="Vector" d="M0 6.75C0 4.26797 2.01797 2.25 4.5 2.25H31.5C33.982 2.25 36 4.26797 36 6.75V29.25C36 31.732 33.982 33.75 31.5 33.75H4.5C2.01797 33.75 0 31.732 0 29.25V6.75ZM22.7672 14.2383C22.4508 13.7742 21.9305 13.5 21.375 13.5C20.8195 13.5 20.2922 13.7742 19.9828 14.2383L13.8656 23.2102L12.0023 20.8828C11.6789 20.482 11.1937 20.25 10.6875 20.25C10.1813 20.25 9.68906 20.482 9.37266 20.8828L4.87266 26.5078C4.46484 27.0141 4.3875 27.7102 4.66875 28.2937C4.95 28.8773 5.54063 29.25 6.1875 29.25H12.9375H15.1875H29.8125C30.4383 29.25 31.0148 28.9055 31.3031 28.35C31.5914 27.7945 31.5562 27.1266 31.2047 26.6133L22.7672 14.2383ZM7.875 13.5C8.77011 13.5 9.62855 13.1444 10.2615 12.5115C10.8944 11.8786 11.25 11.0201 11.25 10.125C11.25 9.22989 10.8944 8.37145 10.2615 7.73851C9.62855 7.10558 8.77011 6.75 7.875 6.75C6.97989 6.75 6.12145 7.10558 5.48851 7.73851C4.85558 8.37145 4.5 9.22989 4.5 10.125C4.5 11.0201 4.85558 11.8786 5.48851 12.5115C6.12145 13.1444 6.97989 13.5 7.875 13.5Z" fill="var(--fill-0, #9CA3AF)"/>
</g>
</svg>
