<svg preserveAspectRatio="none" width="100%" height="100%" overflow="visible" style="display: block;" viewBox="0 0 14 14" fill="none" xmlns="http://www.w3.org/2000/svg">
<g id="Frame">
<g clip-path="url(#clip0_934_47)">
<path id="Vector" d="M14 2.1875C14 2.67969 13.609 3.13359 12.95 3.5C12.1543 3.94023 10.9676 4.25195 9.60586 4.34492C9.50469 4.2957 9.40352 4.24922 9.29688 4.2082C8.21953 3.75703 6.78672 3.5 5.25 3.5C5.02305 3.5 4.80156 3.50547 4.58008 3.51641L4.55 3.5C3.89102 3.13359 3.5 2.67969 3.5 2.1875C3.5 0.978906 5.85156 0 8.75 0C11.6484 0 14 0.978906 14 2.1875ZM4.39414 4.40508C4.67305 4.38594 4.96016 4.375 5.25 4.375C6.95078 4.375 8.46016 4.71133 9.41992 5.23359C10.098 5.60273 10.5 6.06211 10.5 6.5625C10.5 6.67188 10.4809 6.77852 10.4426 6.88242C10.3168 7.24336 9.97773 7.57422 9.48555 7.85313C9.48281 7.85586 9.47734 7.85586 9.47461 7.85859C9.46641 7.86406 9.4582 7.8668 9.45 7.87227C8.49297 8.40273 6.96719 8.74727 5.25 8.74727C3.62031 8.74727 2.16289 8.43828 1.19766 7.95156C1.1457 7.92695 1.09648 7.89961 1.04727 7.87227C0.391016 7.50859 0 7.05469 0 6.5625C0 5.61094 1.46016 4.79883 3.5 4.50078C3.78711 4.45977 4.08516 4.42695 4.39414 4.40508ZM11.375 6.5625C11.375 5.96367 11.0852 5.47148 10.716 5.10234C11.4898 4.98203 12.198 4.79063 12.7996 4.5418C13.2453 4.35586 13.6609 4.12617 14 3.84453V4.8125C14 5.34023 13.5488 5.82695 12.8023 6.2043C12.4031 6.40664 11.9164 6.57891 11.3695 6.71016C11.3723 6.66094 11.375 6.61445 11.375 6.56523V6.5625ZM10.5 9.1875C10.5 9.67969 10.109 10.1336 9.45 10.5C9.40078 10.5273 9.35156 10.552 9.29961 10.5793C8.33711 11.066 6.87969 11.375 5.25 11.375C3.53281 11.375 2.00703 11.0305 1.05 10.5C0.391016 10.1336 0 9.67969 0 9.1875V8.21953C0.341797 8.50117 0.754688 8.73086 1.20039 8.9168C2.28047 9.36797 3.71328 9.625 5.25 9.625C6.78672 9.625 8.21953 9.36797 9.29961 8.9168C9.51289 8.8293 9.71797 8.72813 9.91211 8.61875C10.0789 8.52578 10.2348 8.42188 10.3824 8.3125C10.4234 8.28242 10.4617 8.24961 10.5 8.21953V8.3125V8.46836V9.1875ZM11.375 9.1875V8.3125V7.6043C11.8945 7.48945 12.373 7.34453 12.7996 7.1668C13.2453 6.98086 13.6609 6.75117 14 6.46953V7.4375C14 7.72461 13.8633 8.01172 13.5926 8.28242C13.1469 8.72812 12.3621 9.09453 11.3695 9.33242C11.3723 9.28594 11.375 9.23672 11.375 9.1875ZM5.25 12.25C6.78672 12.25 8.21953 11.993 9.29961 11.5418C9.74531 11.3559 10.1609 11.1262 10.5 10.8445V11.8125C10.5 13.0211 8.14844 14 5.25 14C2.35156 14 0 13.0211 0 11.8125V10.8445C0.341797 11.1262 0.754688 11.3559 1.20039 11.5418C2.28047 11.993 3.71328 12.25 5.25 12.25Z" fill="var(--fill-0, #06B0B7)"/>
</g>
</g>
<defs>
<clipPath id="clip0_934_47">
<path d="M0 0H14V14H0V0Z" fill="white"/>
</clipPath>
</defs>
</svg>
