<svg preserveAspectRatio="none" width="100%" height="100%" overflow="visible" style="display: block;" viewBox="0 0 16 16" fill="none" xmlns="http://www.w3.org/2000/svg">
<g id="Frame">
<path d="M16 16H0V0H16V16Z" stroke="var(--stroke-0, #E5E7EB)"/>
<path id="Vector" d="M9.59375 1.0875C9.23438 1.24687 9 1.60625 9 2V4H5.5C2.4625 4 0 6.4625 0 9.5C0 13.0406 2.54687 14.6219 3.13125 14.9406C3.20937 14.9844 3.29688 15 3.38438 15C3.725 15 4 14.7219 4 14.3844C4 14.15 3.86562 13.9344 3.69375 13.775C3.4 13.4969 3 12.95 3 12C3 10.3437 4.34375 9 6 9H9V11C9 11.3937 9.23125 11.7531 9.59375 11.9125C9.95625 12.0719 10.375 12.0062 10.6687 11.7437L15.6687 7.24375C15.8781 7.05312 16 6.78437 16 6.5C16 6.21562 15.8812 5.94687 15.6687 5.75625L10.6687 1.25625C10.375 0.990625 9.95312 0.925 9.59375 1.0875Z" fill="var(--fill-0, #9CA3AF)"/>
</g>
</svg>
